<svg xmlns="http://www.w3.org/2000/svg" version="1.1" xmlns:xlink="http://www.w3.org/1999/xlink" xmlns:svgjs="http://svgjs.dev/svgjs" width="1440" height="560" preserveAspectRatio="none" viewBox="0 0 1440 560"><g mask="url(&quot;#SvgjsMask1514&quot;)" fill="none"><rect width="1440" height="560" x="0" y="0" fill="rgba(255, 255, 255, 1)"></rect><path d="M0 106.4C16.32 52.28 4.47 28.69 42.22 0C74.47 -24.51 91.11 0 140 0C210 0 210 0 280 0C350 0 350 0 420 0C490 0 490 0 560 0C630 0 630 0 700 0C770 0 770 0 840 0C910 0 910 0 980 0C1050 0 1050 0 1120 0C1190 0 1190 0 1260 0C1330 0 1330 0 1400 0C1470 0 1503.33 -33.33 1540 0C1573.33 30.3 1544.15 64.99 1540 127.27C1539.49 134.99 1530.67 134.66 1530.67 140C1530.67 143.62 1539.66 140.05 1540 145.19C1544.32 210.05 1540 212.6 1540 280C1540 350 1540 350 1540 420C1540 490 1566.81 516.81 1540 560C1523.36 586.81 1492.99 570.97 1453.1 560C1422.99 551.72 1429.15 521.5 1400 521.5C1351.27 521.5 1349.55 545.64 1297.33 560C1279.55 564.89 1278.66 560 1260 560C1190 560 1190 560 1120 560C1050 560 1050 560 980 560C910 560 910 560 840 560C770 560 770 560 700 560C630 560 630 560 560 560C490 560 490 560 420 560C350 560 350 560 280 560C210 560 210 560 140 560C88.66 560 59.54 589.61 37.33 560C7.04 519.61 46.55 487.7 35 420C27.89 378.33 10.23 382.17 0 341.25C-7.27 312.17 0 310.63 0 280C0 210 0 210 0 140C0 123.2 -4.79 122.28 0 106.4" stroke="rgba(132, 51, 194, 1)" stroke-width="2"></path><path d="M280 83.33C254.25 83.33 247.4 111.05 247.4 140C247.4 173.39 252.27 208 280 208C334.68 208 412.22 171.68 412.22 140C412.22 109.35 336.66 83.33 280 83.33" stroke="rgba(132, 51, 194, 1)" stroke-width="2"></path><path d="M980 165.45C964.6 165.45 948.5 226.21 948.5 280C948.5 302.02 964.47 317.06 980 317.06C995.22 317.06 1010 301.76 1010 280C1010 225.96 995.35 165.45 980 165.45" stroke="rgba(132, 51, 194, 1)" stroke-width="2"></path><path d="M1260 167.1C1233.49 167.1 1235.09 227.08 1199.66 280C1165.09 331.65 1162.72 331 1120 376.25C1096.64 401 1067.5 401.61 1067.5 420C1067.5 435.55 1091.92 441.87 1120 444.14C1188.17 449.65 1196 446.41 1260 435.56C1267.18 434.34 1260.29 427.58 1262.37 420C1281.63 349.8 1303.33 349.16 1302.68 280C1302.14 222.71 1285 167.1 1260 167.1" stroke="rgba(132, 51, 194, 1)" stroke-width="2"></path><path d="M280 337.27C249.82 337.27 234.5 379.86 234.5 420C234.5 453.73 251.27 485 280 485C321.92 485 375.79 455.29 375.79 420C375.79 381.42 320.46 337.27 280 337.27" stroke="rgba(132, 51, 194, 1)" stroke-width="2"></path><path d="M53.2 140C41.87 77.63 64.07 54.38 97.78 0C107.47 -15.62 118.89 0 140 0C210 0 266.2 -32.5 280 0C295.92 37.5 241.12 70.85 199.45 140C171.12 187.02 173.95 232.34 140 232.34C100.82 232.34 62.98 193.8 53.2 140" stroke="rgba(132, 51, 194, 1)" stroke-width="2"></path><path d="M420 75.38C349.47 38.71 280 20.04 280 0C280 -17.65 350 0 420 0C490 0 490 0 560 0C630 0 630 0 700 0C770 0 770 0 840 0C910 0 910 0 980 0C1012.44 0 1044.88 -13.21 1044.88 0C1044.88 18.46 1007.8 28.02 980 63.33C952.69 98.02 956.08 100.97 934.65 140C896.58 209.31 850.51 215.23 861 280C873.18 355.23 960.14 342.41 980 420C995.98 482.41 975.7 516.98 932.68 560C905.7 586.98 886.34 560 840 560C790.89 560 757.06 588.62 741.79 560C719.72 518.62 779.44 474.01 765.33 420C758.54 394.01 730.17 400 700 400C687.51 400 691.14 411.32 680 420C621.14 465.87 618.75 509.09 560 509.09C505.3 509.09 493.59 473.49 453.09 420C423.59 381.05 447.56 363.7 420 324.21C398.71 293.7 355.38 299.01 355.38 280C355.38 262.9 388.78 252 420 252C443.2 252 440.37 269.6 464.21 280C510.37 300.14 515.92 313.09 560 313.09C580.36 313.09 593.09 300.94 593.09 280C593.09 223.73 578.72 218.43 560 158.67C556.79 148.43 558.32 145.41 549.23 140C488.32 103.76 484.09 108.71 420 75.38" stroke="rgba(132, 51, 194, 1)" stroke-width="2"></path><path d="M700 42.42C647.73 42.42 571.2 100.32 571.2 140C571.2 173.88 641.43 189.54 700 189.54C728.51 189.54 745.35 168.27 745.35 140C745.35 94.71 734.81 42.42 700 42.42" stroke="rgba(132, 51, 194, 1)" stroke-width="2"></path><path d="M1060.5 140C1065.46 102.59 1089.45 78.97 1120 78.97C1152.25 78.97 1182.45 101.94 1186.11 140C1192.11 202.45 1166.74 212.24 1139.31 280C1133.68 293.9 1130.59 303.33 1120 303.33C1107.6 303.33 1099.21 296.15 1093.33 280C1069.46 214.48 1052.13 203.11 1060.5 140" stroke="rgba(132, 51, 194, 1)" stroke-width="2"></path><path d="M1260 29.17C1246.61 29.17 1234.07 8.76 1234.07 0C1234.07 -5.82 1247.03 0 1260 0C1274.59 0 1289.17 -6.04 1289.17 0C1289.17 8.54 1274.16 29.17 1260 29.17" stroke="rgba(132, 51, 194, 1)" stroke-width="2"></path><path d="M1345.37 280C1363.11 224.68 1360.4 176.87 1400 175.81C1457.72 174.27 1472.06 224.25 1540 274.81C1542.06 276.34 1540 277.4 1540 280C1540 350 1540 350 1540 420C1540 490 1551.16 501.16 1540 560C1537.88 571.16 1524.6 566.55 1513.45 560C1454.6 525.43 1456.59 519.06 1400 477.75C1360.71 449.06 1332.8 460.21 1321.69 420C1305.48 361.33 1323.96 346.77 1345.37 280" stroke="rgba(132, 51, 194, 1)" stroke-width="2"></path><path d="M83.61 420C83.61 372.91 112.85 329.78 140 329.78C166.42 329.78 190.75 373.21 190.75 420C190.75 481.76 166.57 546.88 140 546.88C113 546.88 83.61 481.46 83.61 420" stroke="rgba(132, 51, 194, 1)" stroke-width="2"></path><path d="M192.5 560C192.5 556.86 236.68 547.5 280 547.5C302.3 547.5 323.75 556.81 323.75 560C323.75 563.06 301.88 560 280 560C236.25 560 192.5 563.11 192.5 560" stroke="rgba(132, 51, 194, 1)" stroke-width="2"></path><path d="M1027.32 560C1027.32 538.69 1072.71 484.37 1120 484.37C1170.46 484.37 1222.81 539.06 1222.81 560C1222.81 576.87 1171.4 560 1120 560C1073.66 560 1027.32 576.51 1027.32 560" stroke="rgba(132, 51, 194, 1)" stroke-width="2"></path><path d="M123.2 140C123.2 107.23 132.87 70 140 70C147.03 70 151.51 106.19 151.51 140C151.51 150.13 146.57 157.87 140 157.87C132.42 157.87 123.2 151.17 123.2 140" stroke="rgba(132, 51, 194, 1)" stroke-width="2"></path><path d="M420 8.08C411.99 5.22 405 2.15 405 0C405 -1.89 412.5 0 420 0C490 0 490 0 560 0C595 0 630 -12.15 630 0C630 15.48 599.53 53.74 560 55.26C494.53 57.78 489.49 32.85 420 8.08" stroke="rgba(132, 51, 194, 1)" stroke-width="2"></path><path d="M794.65 140C772.41 73.33 752.69 46.45 767.74 0C775.37 -23.55 803.87 0 840 0C890.91 0 932.69 -28.2 941.82 0C955.36 41.8 917.37 71.87 885.35 140C866.46 180.2 862.67 216.67 840 216.67C817.33 216.67 808.54 181.66 794.65 140" stroke="rgba(132, 51, 194, 1)" stroke-width="2"></path><path d="M656.73 280C656.73 260.17 676.56 243.38 700 243.38C731.25 243.38 766.11 259.58 766.11 280C766.11 302.17 730.5 328.57 700 328.57C675.81 328.57 656.73 302.76 656.73 280" stroke="rgba(132, 51, 194, 1)" stroke-width="2"></path><path d="M1388.05 280C1389.52 267.38 1391.34 257.21 1400 257.21C1413.12 257.21 1416.49 267.73 1431.61 280C1486.49 324.53 1499.79 318.88 1540 370.81C1553.99 388.88 1540 395.4 1540 420C1540 453.71 1561.72 485.24 1540 487.41C1491.72 492.24 1468.68 463.12 1400 434C1389.19 429.42 1381.88 431.09 1381.02 420C1375.91 354.09 1380.03 348.77 1388.05 280" stroke="rgba(132, 51, 194, 1)" stroke-width="2"></path><path d="M132.22 420C132.22 413.51 136.25 407.56 140 407.56C143.64 407.56 147 413.55 147 420C147 428.52 143.67 437.5 140 437.5C136.28 437.5 132.22 428.48 132.22 420" stroke="rgba(132, 51, 194, 1)" stroke-width="2"></path><path d="M516.73 420C516.73 399.35 537.74 376.73 560 376.73C583.66 376.73 608.57 399.45 608.57 420C608.57 439.11 583.78 456.06 560 456.06C537.86 456.06 516.73 439.01 516.73 420" stroke="rgba(132, 51, 194, 1)" stroke-width="2"></path><path d="M794.03 560C794.03 533.73 817.51 481.03 840 481.03C862.18 481.03 883.38 533.35 883.38 560C883.38 572.83 861.69 560 840 560C817.01 560 794.03 573.22 794.03 560" stroke="rgba(132, 51, 194, 1)" stroke-width="2"></path><path d="M1076.62 560C1076.62 550.03 1097.86 524.6 1120 524.6C1143.62 524.6 1168.13 550.2 1168.13 560C1168.13 567.9 1144.07 560 1120 560C1098.31 560 1076.62 567.73 1076.62 560" stroke="rgba(132, 51, 194, 1)" stroke-width="2"></path></g><defs><mask id="SvgjsMask1514"><rect width="1440" height="560" fill="#ffffff"></rect></mask></defs></svg>